# xmcd CD database file
#
# Track frame offsets:
#	150
#	59022
#	154597
#	231193
#
# Disc length: 4010 seconds
#
# Revision: 0
# Processed by: cddbd v1.5.2PL0 Copyright (c) Steve Scherf et al.
# Submitted via: CDex 1.70beta2
#
DISCID=2d0fa804
DTITLE=THE TEACHING - THE TEACHING
DYEAR=2009
DGENRE=Jazz
TTITLE0=THE TEACHING
TTITLE1=AS I AM
TTITLE2=APEX OF A BEAUTIFUL DAY
TTITLE3=A NEW EARTH
EXTD=YEAR: 2009
EXTT0=
EXTT1=
EXTT2=
EXTT3=
PLAYORDER=
